<?xml version="1.0" encoding="iso-8859-1"?>
<!-- Generator: Adobe Illustrator 19.0.0, SVG Export Plug-In . SVG Version: 6.00 Build 0)  -->
<svg version="1.1" id="Layer_1" xmlns="http://www.w3.org/2000/svg" xmlns:xlink="http://www.w3.org/1999/xlink" x="0px" y="0px"
	 viewBox="0 0 347.812 347.812" style="enable-background:new 0 0 347.812 347.812;" xml:space="preserve">
<g>
	<g>
		<path d="M173.906,0C78.094,0,0,78.094,0,173.906s78.094,173.906,173.906,173.906s173.906-78.094,173.906-173.906
			S269.718,0,173.906,0z M173.906,342.222c-92.716,0-168.315-75.514-168.315-168.315S81.105,5.591,173.906,5.591
			c92.716,0,168.316,75.514,168.316,168.315S266.622,342.222,173.906,342.222z"/>
	</g>
</g>
<g>
	<g>
		<path d="M295.692,69.924c-0.86-1.118-2.838-1.376-3.956-0.258c-1.118,0.86-1.376,2.838-0.258,3.956
			c23.996,27.866,37.241,63.387,37.241,100.37c0,85.405-69.322,154.727-154.727,154.727S19.265,259.397,19.265,173.992
			S88.587,19.266,173.992,19.266c36.897,0,72.418,13.245,100.37,36.897c1.118,1.118,2.838,0.86,3.956-0.258
			c1.118-1.118,0.86-2.838-0.258-3.956c-29.07-24.771-65.967-38.36-103.983-38.36c-88.501,0-160.403,71.902-160.403,160.403
			s71.902,160.403,160.403,160.403s160.403-71.902,160.145-160.403C333.966,135.891,320.462,98.908,295.692,69.924z"/>
	</g>
</g>
<g>
	<g>
		<path d="M250.281,157.565H97.79v-0.001c-5.935,0-10.751,4.817-10.751,10.751v11.267c0,5.935,4.816,10.751,10.751,10.751h152.233
			c6.193,0,11.009-4.817,11.009-11.009v-11.009C261.031,162.382,256.215,157.565,250.281,157.565z M255.355,179.324
			c0,2.838-2.236,5.074-5.075,5.074H97.79c-2.838,0-5.075-2.236-5.075-5.074v-11.009c0-2.838,2.236-5.074,5.075-5.074h152.491
			c2.838,0,5.074,2.236,5.074,5.074V179.324z"/>
	</g>
</g>
<g>
</g>
<g>
</g>
<g>
</g>
<g>
</g>
<g>
</g>
<g>
</g>
<g>
</g>
<g>
</g>
<g>
</g>
<g>
</g>
<g>
</g>
<g>
</g>
<g>
</g>
<g>
</g>
<g>
</g>
</svg>
